# xmcd
#
# Track frame offsets:
#	151
#	13987
#	36967
#	53856
#	66978
#	85163
#	101180
#	128207
#	144053
#	156333
#	171315
#	188391
#	201200
#	211903
#
# Disc length: 3502 seconds
#
# Revision: 1
# Processed by: cddbd v1.5.1PL0 Copyright (c) Steve Scherf et al.
# Submitted via: audiograbber 1.83.01
#
DISCID=c60dac0e
DTITLE=Love Sculpture - Blues Helping
DYEAR=1969
DGENRE=Blues
TTITLE0=The Stumble
TTITLE1=3 O'Clock Blues
TTITLE2=I Believe to my Soul
TTITLE3=So Unkind
TTITLE4=Summertime
TTITLE5=On the Road
TTITLE6=Don't Answer the Door
TTITLE7=Wang-Dang-Doodle
TTITLE8=Come Back Baby
TTITLE9=Shake Your Hips
TTITLE10=Blues Helping
TTITLE11=Morning Dew
TTITLE12=Brand New Woman
TTITLE13=Sabre Dance (Long Version)
EXTD=
EXTT0=
EXTT1=
EXTT2=
EXTT3=
EXTT4=
EXTT5=
EXTT6=
EXTT7=
EXTT8=
EXTT9=
EXTT10=
EXTT11=
EXTT12=
EXTT13=
PLAYORDER=
